# xmcd
#
# Track frame offsets: 
#        150
#        11326
#        27118
#        43918
#        63193
#        77280
#        87856
#        106597
#        117296
#        131402
#        151540
#        168744
#        182244
#        196784
#        208169
#        225210
#        233908
#        249394
#        267242
#
# Disc length: 3691 seconds
#
# Revision: 0
# Processed by: cddbd v1.5.2PL0 Copyright (c) Steve Scherf et al.
# Submitted via: ExactAudioCopy v0.95b3
#
DISCID=df0e6913
DTITLE=Hayseed Dixie - Golden Shower Of Hits!!
DYEAR=2009
DGENRE=Bluegrass
TTITLE0=Highway To Hell
TTITLE1=You Shook Me All Night Long
TTITLE2=Whole Lotta Rosie
TTITLE3=Walk This Way
TTITLE4=Fat Bottom Girls
TTITLE5=I'm Keeping Your Poop
TTITLE6=Detroit Rock City
TTITLE7=Ace Of Spades
TTITLE8=Black Dog
TTITLE9=War Pigs
TTITLE10=Holiday
TTITLE11=Kirby Hill
TTITLE12=Duelling Banjos
TTITLE13=Breaking The Law
TTITLE14=I Don't Feel Like Dancing
TTITLE15=She Was Skinny When I Met Her
TTITLE16=Born To Die In France
TTITLE17=Set Myself On Fire
TTITLE18=To Fulle Menn (Bonus Track)
EXTD=
EXTT0=
EXTT1=
EXTT2=
EXTT3=
EXTT4=
EXTT5=
EXTT6=
EXTT7=
EXTT8=
EXTT9=
EXTT10=
EXTT11=
EXTT12=
EXTT13=
EXTT14=
EXTT15=
EXTT16=
EXTT17=
EXTT18=
PLAYORDER=
